<svg xmlns="http://www.w3.org/2000/svg" xmlns:xlink="http://www.w3.org/1999/xlink" width="1920" zoomAndPan="magnify" viewBox="0 0 1440 809.999993" height="1080" preserveAspectRatio="xMidYMid meet" version="1.0"><defs><clipPath id="e42ec00874"><path d="M 649 374.25 L 672 374.25 L 672 435 L 649 435 Z M 649 374.25 " clip-rule="nonzero"/></clipPath><clipPath id="df8802ea15"><path d="M 604.5 382 L 643 382 L 643 435 L 604.5 435 Z M 604.5 382 " clip-rule="nonzero"/></clipPath><clipPath id="ca3f8962b9"><path d="M 674 381 L 728 381 L 728 435.75 L 674 435.75 Z M 674 381 " clip-rule="nonzero"/></clipPath><clipPath id="09e28ac464"><path d="M 785 381 L 835 381 L 835 435.75 L 785 435.75 Z M 785 381 " clip-rule="nonzero"/></clipPath></defs><path fill="#ffffff" d="M 734.484375 433.679688 L 744.765625 433.679688 C 744.863281 433.6875 744.964844 433.675781 745.058594 433.640625 C 745.15625 433.609375 745.242188 433.558594 745.316406 433.488281 C 745.390625 433.421875 745.449219 433.339844 745.492188 433.25 C 745.53125 433.15625 745.554688 433.058594 745.554688 432.960938 L 745.554688 404.648438 C 745.554688 396.617188 749.511719 392.386719 756.339844 392.386719 C 763.167969 392.386719 767.050781 396.617188 767.050781 404.648438 L 767.050781 432.964844 C 767.050781 433.0625 767.074219 433.160156 767.117188 433.253906 C 767.15625 433.34375 767.214844 433.425781 767.289062 433.492188 C 767.363281 433.558594 767.453125 433.613281 767.546875 433.644531 C 767.640625 433.675781 767.742188 433.691406 767.839844 433.683594 L 778.121094 433.683594 C 778.222656 433.691406 778.320312 433.675781 778.414062 433.644531 C 778.511719 433.613281 778.597656 433.558594 778.671875 433.492188 C 778.746094 433.425781 778.804688 433.34375 778.847656 433.253906 C 778.886719 433.160156 778.910156 433.0625 778.910156 432.964844 L 778.910156 404.71875 C 778.910156 392.601562 772.15625 381.992188 756.335938 381.992188 C 740.519531 381.992188 733.695312 392.601562 733.695312 404.71875 L 733.695312 432.964844 C 733.695312 433.0625 733.71875 433.160156 733.761719 433.25 C 733.800781 433.34375 733.863281 433.421875 733.9375 433.492188 C 734.011719 433.558594 734.097656 433.609375 734.191406 433.640625 C 734.285156 433.675781 734.386719 433.6875 734.484375 433.679688 Z M 734.484375 433.679688 " fill-opacity="1" fill-rule="nonzero"/><g clip-path="url(#e42ec00874)"><path fill="#ffffff" d="M 663.746094 434.328125 C 667.484375 434.328125 669.929688 433.894531 671.007812 433.464844 C 671.167969 433.402344 671.308594 433.292969 671.410156 433.152344 C 671.511719 433.015625 671.570312 432.847656 671.582031 432.675781 L 671.582031 424.210938 C 671.582031 423.710938 671.367188 423.421875 670.71875 423.421875 C 670.214844 423.421875 668.777344 423.710938 667.628906 423.710938 C 663.171875 423.710938 661.230469 422.0625 661.230469 418.191406 L 661.230469 394.324219 L 670.71875 394.324219 C 670.929688 394.320312 671.128906 394.238281 671.277344 394.089844 C 671.425781 393.941406 671.507812 393.742188 671.511719 393.535156 L 671.511719 384.285156 C 671.507812 384.078125 671.425781 383.878906 671.277344 383.730469 C 671.128906 383.582031 670.929688 383.5 670.71875 383.496094 L 660.871094 383.496094 L 660.871094 375.46875 C 660.871094 374.609375 660.511719 374.25 659.863281 374.25 L 650.160156 374.25 C 649.371094 374.25 649.011719 374.609375 649.011719 375.46875 L 649.011719 419.414062 C 649.011719 430.097656 654.976562 434.328125 663.746094 434.328125 Z M 663.746094 434.328125 " fill-opacity="1" fill-rule="nonzero"/></g><g clip-path="url(#df8802ea15)"><path fill="#ffffff" d="M 622.488281 434.898438 C 634.0625 434.898438 642.328125 427.800781 642.328125 418.554688 C 642.328125 408.160156 635.425781 405.148438 626.011719 403.140625 L 621.335938 402.136719 C 617.816406 401.347656 615.875 399.699219 615.875 396.902344 C 615.875 393.320312 619.46875 391.382812 624.429688 391.382812 C 631.402344 391.382812 636.144531 394.539062 636.863281 394.539062 C 637.0625 394.523438 637.257812 394.457031 637.421875 394.34375 C 637.585938 394.230469 637.71875 394.074219 637.800781 393.894531 L 639.667969 386.941406 C 640.03125 386.007812 639.957031 385.792969 639.308594 385.433594 C 635.136719 383.285156 630.679688 382.0625 624.355469 382.0625 C 612.636719 382.0625 604.511719 388.804688 604.511719 397.765625 C 604.511719 406.230469 611.054688 410.882812 620.40625 412.894531 L 625.148438 413.894531 C 628.960938 414.683594 631.109375 416.191406 631.109375 419.417969 C 631.109375 422.714844 628.519531 425.582031 622.410156 425.582031 C 613.78125 425.582031 607.886719 422.140625 606.953125 422.140625 C 606.378906 422.140625 606.164062 422.425781 605.949219 423.359375 L 604.726562 429.167969 C 604.363281 430.382812 604.726562 431.171875 605.515625 431.53125 C 608.464844 433.179688 616.515625 434.898438 622.488281 434.898438 Z M 622.488281 434.898438 " fill-opacity="1" fill-rule="nonzero"/></g><g clip-path="url(#ca3f8962b9)"><path fill="#ffffff" d="M 700.914062 424.933594 C 693.367188 424.933594 686.46875 419.269531 686.46875 408.589844 C 686.46875 397.90625 693.367188 392.378906 700.914062 392.378906 C 708.535156 392.378906 715.292969 397.898438 715.292969 408.589844 C 715.292969 419.34375 708.535156 424.933594 700.914062 424.933594 Z M 700.914062 435.257812 C 716.011719 435.257812 727.007812 424.003906 727.007812 408.589844 C 727.007812 393.175781 716.011719 381.992188 700.914062 381.992188 C 685.890625 381.992188 674.820312 393.175781 674.820312 408.589844 C 674.820312 424 685.890625 435.257812 700.914062 435.257812 Z M 700.914062 435.257812 " fill-opacity="1" fill-rule="nonzero"/></g><g clip-path="url(#09e28ac464)"><path fill="#ffffff" d="M 834.878906 408.015625 C 834.878906 392.167969 825.746094 381.992188 811.21875 381.992188 C 797.5625 381.992188 785.773438 392.460938 785.773438 408.375 C 785.773438 425.363281 797.847656 435.257812 810.789062 435.257812 C 821.644531 435.257812 827.90625 430.992188 831.78125 425.796875 C 832.53125 424.789062 832.683594 424.355469 832.683594 424.074219 C 832.683594 423.792969 832.503906 423.574219 831.851562 422.992188 L 827.320312 419.050781 C 826.238281 418.121094 825.878906 417.832031 825.515625 417.832031 C 825.15625 417.832031 824.941406 418.046875 824.652344 418.40625 C 821.5625 422.566406 817.25 424.929688 811.425781 424.929688 C 804.082031 424.929688 799.1875 419.953125 797.945312 411.882812 L 831.117188 411.882812 C 833.429688 411.886719 834.878906 411.160156 834.878906 408.015625 Z M 810.792969 391.957031 C 818.640625 391.957031 822.789062 397.234375 823.015625 403.070312 L 798.121094 403.070312 C 799.484375 396.804688 803.746094 391.957031 810.792969 391.957031 Z M 810.792969 391.957031 " fill-opacity="1" fill-rule="nonzero"/></g></svg>